<mxfile host="app.diagrams.net" modified="2021-12-03T07:09:36.130Z" agent="5.0 (Windows NT 10.0; Win64; x64) AppleWebKit/537.36 (KHTML, like Gecko) Chrome/96.0.4664.45 Safari/537.36" etag="isAuHoXiuRqsHljYMJM2" version="15.7.3" type="github">
  <diagram id="muZA9YSw4MGFrPJknFsy" name="Page-1">
    <mxGraphModel dx="1422" dy="794" grid="1" gridSize="10" guides="1" tooltips="1" connect="1" arrows="1" fold="1" page="1" pageScale="1" pageWidth="827" pageHeight="1169" math="0" shadow="0">
      <root>
        <mxCell id="0" />
        <mxCell id="1" parent="0" />
        <mxCell id="nfPuu5cRxcaGdbBw-N8y-13" style="edgeStyle=orthogonalEdgeStyle;rounded=0;orthogonalLoop=1;jettySize=auto;html=1;exitX=0;exitY=0.5;exitDx=0;exitDy=0;entryX=1;entryY=0.5;entryDx=0;entryDy=0;" edge="1" parent="1" source="nfPuu5cRxcaGdbBw-N8y-1" target="nfPuu5cRxcaGdbBw-N8y-3">
          <mxGeometry relative="1" as="geometry" />
        </mxCell>
        <mxCell id="nfPuu5cRxcaGdbBw-N8y-15" style="edgeStyle=orthogonalEdgeStyle;rounded=0;orthogonalLoop=1;jettySize=auto;html=1;exitX=0.5;exitY=0;exitDx=0;exitDy=0;entryX=0.5;entryY=1;entryDx=0;entryDy=0;" edge="1" parent="1" source="nfPuu5cRxcaGdbBw-N8y-1" target="nfPuu5cRxcaGdbBw-N8y-4">
          <mxGeometry relative="1" as="geometry" />
        </mxCell>
        <mxCell id="nfPuu5cRxcaGdbBw-N8y-1" value="dm-admin-report" style="rounded=1;whiteSpace=wrap;html=1;fillColor=#1ba1e2;strokeColor=#006EAF;fontColor=#ffffff;" vertex="1" parent="1">
          <mxGeometry x="320" y="320" width="120" height="60" as="geometry" />
        </mxCell>
        <mxCell id="nfPuu5cRxcaGdbBw-N8y-10" style="edgeStyle=orthogonalEdgeStyle;rounded=0;orthogonalLoop=1;jettySize=auto;html=1;exitX=1;exitY=0.5;exitDx=0;exitDy=0;entryX=0;entryY=0.5;entryDx=0;entryDy=0;" edge="1" parent="1" source="nfPuu5cRxcaGdbBw-N8y-2" target="nfPuu5cRxcaGdbBw-N8y-4">
          <mxGeometry relative="1" as="geometry" />
        </mxCell>
        <mxCell id="nfPuu5cRxcaGdbBw-N8y-2" value="dm-admin-base" style="rounded=1;whiteSpace=wrap;html=1;fillColor=#1ba1e2;strokeColor=#006EAF;fontColor=#ffffff;" vertex="1" parent="1">
          <mxGeometry y="130" width="120" height="60" as="geometry" />
        </mxCell>
        <mxCell id="nfPuu5cRxcaGdbBw-N8y-12" style="edgeStyle=orthogonalEdgeStyle;rounded=0;orthogonalLoop=1;jettySize=auto;html=1;exitX=0.5;exitY=0;exitDx=0;exitDy=0;entryX=0.5;entryY=1;entryDx=0;entryDy=0;" edge="1" parent="1" source="nfPuu5cRxcaGdbBw-N8y-3" target="nfPuu5cRxcaGdbBw-N8y-2">
          <mxGeometry relative="1" as="geometry" />
        </mxCell>
        <mxCell id="nfPuu5cRxcaGdbBw-N8y-3" value="dm-admin-analysis" style="rounded=1;whiteSpace=wrap;html=1;fillColor=#1ba1e2;strokeColor=#006EAF;fontColor=#ffffff;" vertex="1" parent="1">
          <mxGeometry y="320" width="120" height="60" as="geometry" />
        </mxCell>
        <mxCell id="nfPuu5cRxcaGdbBw-N8y-4" value="dm-integrate-server" style="rounded=1;whiteSpace=wrap;html=1;fillColor=#1ba1e2;strokeColor=#006EAF;fontColor=#ffffff;" vertex="1" parent="1">
          <mxGeometry x="320" y="130" width="120" height="60" as="geometry" />
        </mxCell>
        <mxCell id="nfPuu5cRxcaGdbBw-N8y-21" value="" style="endArrow=classic;html=1;rounded=0;entryX=1;entryY=1;entryDx=0;entryDy=0;exitX=0;exitY=0;exitDx=0;exitDy=0;" edge="1" parent="1" source="nfPuu5cRxcaGdbBw-N8y-1" target="nfPuu5cRxcaGdbBw-N8y-2">
          <mxGeometry width="50" height="50" relative="1" as="geometry">
            <mxPoint x="210" y="460" as="sourcePoint" />
            <mxPoint x="260" y="410" as="targetPoint" />
          </mxGeometry>
        </mxCell>
        <mxCell id="nfPuu5cRxcaGdbBw-N8y-22" value="" style="endArrow=classic;html=1;rounded=0;entryX=0;entryY=1;entryDx=0;entryDy=0;exitX=1;exitY=0;exitDx=0;exitDy=0;" edge="1" parent="1" source="nfPuu5cRxcaGdbBw-N8y-3" target="nfPuu5cRxcaGdbBw-N8y-4">
          <mxGeometry width="50" height="50" relative="1" as="geometry">
            <mxPoint x="230" y="320" as="sourcePoint" />
            <mxPoint x="280" y="270" as="targetPoint" />
          </mxGeometry>
        </mxCell>
        <mxCell id="nfPuu5cRxcaGdbBw-N8y-23" value="" style="endArrow=classic;html=1;rounded=0;entryX=1;entryY=0.25;entryDx=0;entryDy=0;exitX=0.25;exitY=1;exitDx=0;exitDy=0;" edge="1" parent="1" source="nfPuu5cRxcaGdbBw-N8y-4" target="nfPuu5cRxcaGdbBw-N8y-3">
          <mxGeometry width="50" height="50" relative="1" as="geometry">
            <mxPoint x="210" y="340" as="sourcePoint" />
            <mxPoint x="260" y="290" as="targetPoint" />
          </mxGeometry>
        </mxCell>
        <mxCell id="nfPuu5cRxcaGdbBw-N8y-27" style="edgeStyle=orthogonalEdgeStyle;rounded=0;orthogonalLoop=1;jettySize=auto;html=1;exitX=0.5;exitY=0;exitDx=0;exitDy=0;entryX=0.5;entryY=1;entryDx=0;entryDy=0;" edge="1" parent="1" source="nfPuu5cRxcaGdbBw-N8y-24" target="nfPuu5cRxcaGdbBw-N8y-3">
          <mxGeometry relative="1" as="geometry" />
        </mxCell>
        <mxCell id="nfPuu5cRxcaGdbBw-N8y-24" value="dm-analysis-actuator" style="rounded=1;whiteSpace=wrap;html=1;fillColor=#1ba1e2;strokeColor=#006EAF;fontColor=#ffffff;" vertex="1" parent="1">
          <mxGeometry y="530" width="120" height="60" as="geometry" />
        </mxCell>
        <mxCell id="nfPuu5cRxcaGdbBw-N8y-28" value="" style="endArrow=classic;html=1;rounded=0;exitX=1;exitY=0;exitDx=0;exitDy=0;entryX=0.75;entryY=1;entryDx=0;entryDy=0;" edge="1" parent="1" source="nfPuu5cRxcaGdbBw-N8y-24" target="nfPuu5cRxcaGdbBw-N8y-4">
          <mxGeometry width="50" height="50" relative="1" as="geometry">
            <mxPoint x="180" y="460" as="sourcePoint" />
            <mxPoint x="230" y="410" as="targetPoint" />
          </mxGeometry>
        </mxCell>
      </root>
    </mxGraphModel>
  </diagram>
</mxfile>
